<svg width="56" height="56" viewBox="0 0 56 56" xmlns="http://www.w3.org/2000/svg" xmlns:xlink="http://www.w3.org/1999/xlink">
    <defs>
        <filter x="-14.3%" y="-14.3%" width="135.7%" height="135.7%" filterUnits="objectBoundingBox" id="u3zd3386ma">
            <feMorphology radius="1" in="SourceAlpha" result="shadowSpreadOuter1"/>
            <feOffset dx="2" dy="2" in="shadowSpreadOuter1" result="shadowOffsetOuter1"/>
            <feGaussianBlur stdDeviation="4" in="shadowOffsetOuter1" result="shadowBlurOuter1"/>
            <feColorMatrix values="0 0 0 0 0 0 0 0 0 0 0 0 0 0 0 0 0 0 0.2 0" in="shadowBlurOuter1"/>
        </filter>
        <rect id="dhip4tq20b" x="0" y="0" width="56" height="56" rx="28"/>
    </defs>
    <g fill="none" fill-rule="evenodd">
        <g>
            <use fill="#000" filter="url(#u3zd3386ma)" xlink:href="#dhip4tq20b"/>
            <use fill="#FFF" xlink:href="#dhip4tq20b"/>
        </g>
        <path d="M23.08 30.177A2.988 2.988 0 0 1 18 28.015a2.998 2.998 0 0 1 5.08-2.162l8.94-4.474a2.999 2.999 0 0 1 5.657-1.725 3.005 3.005 0 0 1-.898 3.765 2.998 2.998 0 0 1-3.859-.248l-8.94 4.474c.03.246.03.495 0 .74l8.94 4.475A2.988 2.988 0 0 1 38 35.022a3.003 3.003 0 0 1-1.615 2.64 2.998 2.998 0 0 1-3.087-.192 3.004 3.004 0 0 1-1.278-2.818l-8.94-4.475z" fill="#000" fill-rule="nonzero"/>
    </g>
</svg>
